<mxfile host="app.diagrams.net" modified="2023-10-22T16:09:06.655Z" agent="Mozilla/5.0 (Macintosh; Intel Mac OS X 10_15_7) AppleWebKit/605.1.15 (KHTML, like Gecko) Version/17.1 Safari/605.1.15" etag="8jTjyB9alBEV1S-8ddMb" version="22.0.6" type="google">
  <diagram name="Page-1" id="SQOWVmyiZ6ErgLzGoMWL">
    <mxGraphModel dx="1781" dy="569" grid="1" gridSize="10" guides="1" tooltips="1" connect="1" arrows="1" fold="1" page="1" pageScale="1" pageWidth="827" pageHeight="1169" math="0" shadow="0">
      <root>
        <mxCell id="0" />
        <mxCell id="1" parent="0" />
        <mxCell id="wdTUpN9zJKtQFacj5KTt-7" value="" style="rounded=1;whiteSpace=wrap;html=1;fillColor=#e1d5e7;strokeColor=#9673a6;" parent="1" vertex="1">
          <mxGeometry x="210" y="200" width="250" height="180" as="geometry" />
        </mxCell>
        <mxCell id="wdTUpN9zJKtQFacj5KTt-1" value="&lt;font style=&quot;font-size: 18px;&quot;&gt;FW actif&lt;/font&gt;" style="shape=parallelogram;perimeter=parallelogramPerimeter;whiteSpace=wrap;html=1;fixedSize=1;" parent="1" vertex="1">
          <mxGeometry x="220" y="210" width="120" height="60" as="geometry" />
        </mxCell>
        <mxCell id="wdTUpN9zJKtQFacj5KTt-2" value="&lt;font style=&quot;font-size: 18px;&quot;&gt;FW passif&lt;/font&gt;" style="shape=parallelogram;perimeter=parallelogramPerimeter;whiteSpace=wrap;html=1;fixedSize=1;" parent="1" vertex="1">
          <mxGeometry x="220" y="310" width="120" height="60" as="geometry" />
        </mxCell>
        <mxCell id="wdTUpN9zJKtQFacj5KTt-3" value="" style="endArrow=classic;html=1;rounded=0;entryX=0;entryY=0.5;entryDx=0;entryDy=0;exitX=0.875;exitY=0.5;exitDx=0;exitDy=0;exitPerimeter=0;" parent="1" source="wdTUpN9zJKtQFacj5KTt-23" target="wdTUpN9zJKtQFacj5KTt-1" edge="1">
          <mxGeometry relative="1" as="geometry">
            <mxPoint x="140" y="240" as="sourcePoint" />
            <mxPoint x="150" y="280" as="targetPoint" />
          </mxGeometry>
        </mxCell>
        <mxCell id="wdTUpN9zJKtQFacj5KTt-4" value="&lt;font style=&quot;font-size: 18px;&quot;&gt;Trafic&lt;/font&gt;" style="edgeLabel;resizable=0;html=1;align=center;verticalAlign=middle;" parent="wdTUpN9zJKtQFacj5KTt-3" connectable="0" vertex="1">
          <mxGeometry relative="1" as="geometry">
            <mxPoint x="2" y="-40" as="offset" />
          </mxGeometry>
        </mxCell>
        <mxCell id="wdTUpN9zJKtQFacj5KTt-11" value="&lt;font style=&quot;font-size: 16px;&quot;&gt;ctrl&lt;/font&gt;" style="text;html=1;strokeColor=none;fillColor=none;align=center;verticalAlign=middle;whiteSpace=wrap;rounded=0;" parent="1" vertex="1">
          <mxGeometry x="240" y="275" width="40" height="30" as="geometry" />
        </mxCell>
        <mxCell id="wdTUpN9zJKtQFacj5KTt-12" value="" style="endArrow=classic;html=1;rounded=0;exitX=1;exitY=0.5;exitDx=0;exitDy=0;entryX=0.013;entryY=0.372;entryDx=0;entryDy=0;entryPerimeter=0;" parent="1" source="wdTUpN9zJKtQFacj5KTt-1" target="wdTUpN9zJKtQFacj5KTt-13" edge="1">
          <mxGeometry width="50" height="50" relative="1" as="geometry">
            <mxPoint x="370" y="280" as="sourcePoint" />
            <mxPoint x="390" y="230" as="targetPoint" />
          </mxGeometry>
        </mxCell>
        <mxCell id="wdTUpN9zJKtQFacj5KTt-13" value="&lt;font style=&quot;font-size: 18px;&quot;&gt;Load Balancer&lt;/font&gt;" style="ellipse;whiteSpace=wrap;html=1;aspect=fixed;" parent="1" vertex="1">
          <mxGeometry x="372" y="248" width="84" height="84" as="geometry" />
        </mxCell>
        <mxCell id="wdTUpN9zJKtQFacj5KTt-14" value="" style="endArrow=none;dashed=1;html=1;rounded=0;entryX=0.5;entryY=1;entryDx=0;entryDy=0;exitX=0.5;exitY=0;exitDx=0;exitDy=0;" parent="1" source="wdTUpN9zJKtQFacj5KTt-2" target="wdTUpN9zJKtQFacj5KTt-1" edge="1">
          <mxGeometry width="50" height="50" relative="1" as="geometry">
            <mxPoint x="280" y="320" as="sourcePoint" />
            <mxPoint x="330" y="270" as="targetPoint" />
          </mxGeometry>
        </mxCell>
        <mxCell id="wdTUpN9zJKtQFacj5KTt-15" value="" style="rounded=1;whiteSpace=wrap;html=1;fillColor=#e1d5e7;strokeColor=#9673a6;" parent="1" vertex="1">
          <mxGeometry x="530" y="255" width="100" height="70" as="geometry" />
        </mxCell>
        <mxCell id="wdTUpN9zJKtQFacj5KTt-16" value="&lt;font style=&quot;font-size: 18px;&quot;&gt;serveur &lt;br&gt;&lt;/font&gt;" style="rounded=1;whiteSpace=wrap;html=1;" parent="1" vertex="1">
          <mxGeometry x="541.25" y="265" width="77.5" height="50" as="geometry" />
        </mxCell>
        <mxCell id="wdTUpN9zJKtQFacj5KTt-18" value="" style="rounded=1;whiteSpace=wrap;html=1;fillColor=#e1d5e7;strokeColor=#9673a6;" parent="1" vertex="1">
          <mxGeometry x="530" y="325" width="100" height="70" as="geometry" />
        </mxCell>
        <mxCell id="wdTUpN9zJKtQFacj5KTt-19" value="&lt;font style=&quot;font-size: 18px;&quot;&gt;serveur &lt;br&gt;&lt;/font&gt;" style="rounded=1;whiteSpace=wrap;html=1;" parent="1" vertex="1">
          <mxGeometry x="541.25" y="335" width="77.5" height="50" as="geometry" />
        </mxCell>
        <mxCell id="wdTUpN9zJKtQFacj5KTt-20" value="" style="rounded=1;whiteSpace=wrap;html=1;fillColor=#e1d5e7;strokeColor=#9673a6;" parent="1" vertex="1">
          <mxGeometry x="530" y="185" width="100" height="70" as="geometry" />
        </mxCell>
        <mxCell id="wdTUpN9zJKtQFacj5KTt-21" value="&lt;font style=&quot;font-size: 18px;&quot;&gt;serveur &lt;br&gt;&lt;/font&gt;" style="rounded=1;whiteSpace=wrap;html=1;" parent="1" vertex="1">
          <mxGeometry x="541.25" y="195" width="77.5" height="50" as="geometry" />
        </mxCell>
        <mxCell id="wdTUpN9zJKtQFacj5KTt-23" value="&lt;div&gt;&lt;font style=&quot;font-size: 18px;&quot;&gt;RÃ©seau de&lt;/font&gt;&lt;/div&gt;&lt;div&gt;&lt;font style=&quot;font-size: 18px;&quot;&gt;capteurs&lt;/font&gt;&lt;/div&gt;" style="ellipse;shape=cloud;whiteSpace=wrap;html=1;fillColor=#ffe6cc;strokeColor=#d79b00;" parent="1" vertex="1">
          <mxGeometry x="-80" y="165" width="170" height="150" as="geometry" />
        </mxCell>
        <mxCell id="wdTUpN9zJKtQFacj5KTt-24" value="" style="endArrow=classic;html=1;rounded=0;exitX=1;exitY=0.5;exitDx=0;exitDy=0;entryX=0;entryY=0.5;entryDx=0;entryDy=0;" parent="1" source="wdTUpN9zJKtQFacj5KTt-13" target="wdTUpN9zJKtQFacj5KTt-20" edge="1">
          <mxGeometry width="50" height="50" relative="1" as="geometry">
            <mxPoint x="340" y="250" as="sourcePoint" />
            <mxPoint x="370" y="400" as="targetPoint" />
          </mxGeometry>
        </mxCell>
        <mxCell id="wdTUpN9zJKtQFacj5KTt-25" value="" style="endArrow=classic;html=1;rounded=0;entryX=0;entryY=0.5;entryDx=0;entryDy=0;exitX=1;exitY=0.5;exitDx=0;exitDy=0;" parent="1" source="wdTUpN9zJKtQFacj5KTt-13" target="wdTUpN9zJKtQFacj5KTt-15" edge="1">
          <mxGeometry width="50" height="50" relative="1" as="geometry">
            <mxPoint x="460" y="250" as="sourcePoint" />
            <mxPoint x="540" y="230" as="targetPoint" />
          </mxGeometry>
        </mxCell>
        <mxCell id="wdTUpN9zJKtQFacj5KTt-26" value="" style="endArrow=classic;html=1;rounded=0;exitX=1;exitY=0.5;exitDx=0;exitDy=0;entryX=0;entryY=0.5;entryDx=0;entryDy=0;" parent="1" source="wdTUpN9zJKtQFacj5KTt-13" target="wdTUpN9zJKtQFacj5KTt-18" edge="1">
          <mxGeometry width="50" height="50" relative="1" as="geometry">
            <mxPoint x="473" y="270" as="sourcePoint" />
            <mxPoint x="550" y="240" as="targetPoint" />
          </mxGeometry>
        </mxCell>
        <mxCell id="wdTUpN9zJKtQFacj5KTt-27" value="&lt;font style=&quot;font-size: 18px;&quot;&gt;VPN&lt;/font&gt;" style="shape=display;whiteSpace=wrap;html=1;" parent="1" vertex="1">
          <mxGeometry x="110.25" y="220" width="80" height="40" as="geometry" />
        </mxCell>
        <mxCell id="wdTUpN9zJKtQFacj5KTt-30" value="" style="rounded=1;whiteSpace=wrap;html=1;fillColor=#e1d5e7;strokeColor=#9673a6;" parent="1" vertex="1">
          <mxGeometry x="680" y="255" width="100" height="70" as="geometry" />
        </mxCell>
        <mxCell id="wdTUpN9zJKtQFacj5KTt-31" value="&lt;font style=&quot;font-size: 18px;&quot;&gt;BDD&lt;/font&gt;" style="rounded=1;whiteSpace=wrap;html=1;" parent="1" vertex="1">
          <mxGeometry x="691.25" y="265" width="77.5" height="50" as="geometry" />
        </mxCell>
        <mxCell id="wdTUpN9zJKtQFacj5KTt-32" value="" style="endArrow=classic;html=1;rounded=0;exitX=1;exitY=0.5;exitDx=0;exitDy=0;entryX=0;entryY=1;entryDx=0;entryDy=0;" parent="1" source="wdTUpN9zJKtQFacj5KTt-18" target="wdTUpN9zJKtQFacj5KTt-30" edge="1">
          <mxGeometry width="50" height="50" relative="1" as="geometry">
            <mxPoint x="610" y="380" as="sourcePoint" />
            <mxPoint x="660" y="330" as="targetPoint" />
          </mxGeometry>
        </mxCell>
        <mxCell id="wdTUpN9zJKtQFacj5KTt-33" value="" style="endArrow=classic;html=1;rounded=0;exitX=1;exitY=0.5;exitDx=0;exitDy=0;entryX=0;entryY=0.5;entryDx=0;entryDy=0;" parent="1" source="wdTUpN9zJKtQFacj5KTt-15" target="wdTUpN9zJKtQFacj5KTt-30" edge="1">
          <mxGeometry width="50" height="50" relative="1" as="geometry">
            <mxPoint x="640" y="370" as="sourcePoint" />
            <mxPoint x="660" y="300" as="targetPoint" />
          </mxGeometry>
        </mxCell>
        <mxCell id="wdTUpN9zJKtQFacj5KTt-34" value="" style="endArrow=classic;html=1;rounded=0;exitX=1;exitY=0.5;exitDx=0;exitDy=0;entryX=0;entryY=0;entryDx=0;entryDy=0;" parent="1" source="wdTUpN9zJKtQFacj5KTt-20" target="wdTUpN9zJKtQFacj5KTt-30" edge="1">
          <mxGeometry width="50" height="50" relative="1" as="geometry">
            <mxPoint x="650" y="380" as="sourcePoint" />
            <mxPoint x="670" y="310" as="targetPoint" />
          </mxGeometry>
        </mxCell>
      </root>
    </mxGraphModel>
  </diagram>
</mxfile>
